<?xml version="1.0" standalone="no"?>
<!DOCTYPE svg PUBLIC "-//W3C//DTD SVG 20010904//EN"
 "http://www.w3.org/TR/2001/REC-SVG-20010904/DTD/svg10.dtd">
<svg version="1.0" xmlns="http://www.w3.org/2000/svg"
 width="128.000000pt" height="128.000000pt" viewBox="0 0 128.000000 128.000000"
 preserveAspectRatio="xMidYMid meet">
<metadata>
Created by potrace 1.11, written by Peter Selinger 2001-2013
</metadata>
<g transform="translate(0.000000,128.000000) scale(0.100000,-0.100000)"
fill="#000000" stroke="none">
<path d="M107 1233 c-3 -27 -9 -66 -12 -88 -9 -45 -9 -52 -1 -115 8 -62 13
-86 24 -107 5 -10 13 -42 17 -70 6 -43 4 -53 -8 -53 -10 0 -13 -8 -10 -24 3
-15 -2 -30 -14 -42 -11 -11 -29 -35 -40 -54 -20 -34 -21 -49 -20 -357 l0 -323
619 0 618 0 0 315 c0 304 -1 315 -19 315 -27 0 -51 10 -51 22 0 5 9 23 20 39
15 19 22 48 24 94 2 36 8 71 14 78 6 7 9 81 8 182 l-1 170 -30 -3 c-42 -5 -79
-29 -157 -101 -103 -97 -133 -111 -237 -111 -48 0 -92 -5 -98 -11 -11 -11
-183 9 -183 22 0 3 -25 5 -57 3 -54 -4 -57 -3 -90 34 -19 20 -51 64 -73 97
-21 33 -51 77 -65 98 l-26 37 -74 0 -73 0 -5 -47z"/>
</g>
</svg>
